# xmcd CD database file
#
# Track frame offsets:
#	150
#	18120
#	34220
#	63275
#	86057
#	114130
#	126792
#	149115
#	177855
#	192887
#	205967
#	231440
#	242882
#	256057
#	281517
#	310090
#
# Disc length: 4307 seconds
#
# Revision: 5
# Processed by: cddbd v1.5.2PL0 Copyright (c) Steve Scherf et al.
# Submitted via: CDex 1.51
#
DISCID=e010d110
DTITLE=Buddy Guy - This Is Buddy Guy! - A Man And The Blues
DYEAR=1900
DGENRE=Blues
TTITLE0=I Got My Eyes On You
TTITLE1=The Things I Used To Do
TTITLE2=(you Give Me) Fever
TTITLE3=Knock On Wood
TTITLE4=I Had A Dream Last Night
TTITLE5=24 Hours Of The Day
TTITLE6=You Were Wrong
TTITLE7=A Man And The Blues
TTITLE8=I Can't Quit The Blues
TTITLE9=Money (That's What I Want)
TTITLE10=One Room Country Shack
TTITLE11=Mary Had A Little Lamb
TTITLE12=Just Playing My Axe
TTITLE13=Sweet Little Angel
TTITLE14=Worry, Worry
TTITLE15=Jam On A Monday Morning
EXTD=
EXTT0=
EXTT1=
EXTT2=
EXTT3=
EXTT4=
EXTT5=
EXTT6=
EXTT7=
EXTT8=
EXTT9=
EXTT10=
EXTT11=
EXTT12=
EXTT13=
EXTT14=
EXTT15=
PLAYORDER=
